<?xml version="1.0" standalone="no"?><!DOCTYPE svg PUBLIC "-//W3C//DTD SVG 1.1//EN" "http://www.w3.org/Graphics/SVG/1.1/DTD/svg11.dtd"><svg t="1665042198322" class="icon" viewBox="0 0 1024 1024" version="1.1" xmlns="http://www.w3.org/2000/svg" p-id="12689" xmlns:xlink="http://www.w3.org/1999/xlink" width="16" height="16"><path d="M266.5 909.5c-29.2 0-56.6-11.6-77.1-32.7l-38.6-39.6c-42.1-43.2-42.1-113.6 0-156.8l316.5-324.7c3.8-3.9 8.9-6 14.3-6s10.6 2.2 14.3 6l164.3 168.6c7.6 7.8 7.6 20.2 0 27.9L343.6 876.7c-20.5 21.1-47.9 32.8-77.1 32.8z m215-511.4l-302.1 310c-27.1 27.8-27.1 73.2 0 101l38.6 39.6c13 13.3 30.2 20.7 48.5 20.7s35.5-7.3 48.5-20.7L617.9 538 481.5 398.1z" fill="#DBE7FE" p-id="12690"></path><path d="M392.1 818.4c-1.4 0-2.9-0.2-4.3-0.5l-162-35.7c-10.8-2.4-17.6-13-15.2-23.8 2.4-10.8 13-17.6 23.8-15.2l162 35.7c10.8 2.4 17.6 13 15.2 23.8-2.1 9.3-10.3 15.7-19.5 15.7zM504.4 703.1c-1.4 0-2.8-0.1-4.2-0.5l-271.6-58.4c-10.8-2.3-17.7-13-15.3-23.8 2.3-10.8 13-17.7 23.8-15.3l271.6 58.4c10.8 2.3 17.7 13 15.3 23.8-2 9.4-10.3 15.8-19.6 15.8zM534.4 560.7c-1.4 0-2.8-0.1-4.2-0.5l-181.7-39.1c-10.8-2.3-17.7-13-15.3-23.8s13-17.7 23.8-15.3l181.7 39.1c10.8 2.3 17.7 13 15.3 23.8-2.1 9.4-10.3 15.8-19.6 15.8zM765.4 661.6c-17.5 0-33.9-7-46.3-19.7L379.6 293.5c-25-25.6-25.3-67-0.7-92.2l40.5-41.6c22.1-22.7 51.8-35.2 83.4-35.2 32.5 0 63.2 13.1 86.4 36.9l80.5 82.6c15.1 15.5 15.2 40.5 0.3 55.8-7.7 7.9-7.4 20.9 0.6 29.1l15.4 15.8c3.8 3.9 8.8 6.1 14.1 6.1 4.9 0 9.5-1.9 12.9-5.5 7.3-7.5 17.1-11.7 27.6-11.7 10.7 0 20.7 4.3 28.2 12l80.5 82.6c46.9 48.1 47.6 125.6 1.6 172.7l-40.5 41.6c-12 12.4-27.9 19.1-45 19.1zM502.8 164.5c-20.8 0-40.2 8.2-54.8 23.1l-40.5 41.6c-9.6 9.8-9.3 26.2 0.7 36.4L747.7 614c4.8 4.9 11.1 7.7 17.7 7.7 6.2 0 12-2.5 16.4-6.9l40.5-41.6c31-31.8 30.2-84.2-1.6-116.9l-79.9-82c-10.9 10.7-25.3 16.6-40.6 16.6-16.1 0-31.3-6.5-42.7-18.2L642 356.9c-22.9-23.5-23.3-61.5-0.9-84.8 0-0.1 0-0.1-0.1-0.2l-80.5-82.6c-15.6-16-36.1-24.8-57.7-24.8z" fill="#DBE7FE" p-id="12691"></path><path d="M286.5 899.5c-29.2 0-56.6-11.6-77.1-32.7l-38.6-39.6c-42.1-43.2-42.1-113.6 0-156.8l316.5-324.7c3.8-3.9 8.9-6 14.3-6s10.6 2.2 14.3 6l164.3 168.6c7.6 7.8 7.6 20.2 0 27.9L363.6 866.7c-20.5 21.1-47.9 32.8-77.1 32.8z m215-511.4l-302.1 310c-27.1 27.8-27.1 73.2 0 101l38.6 39.6c13 13.3 30.2 20.7 48.5 20.7s35.5-7.3 48.5-20.7L637.9 528 501.5 388.1z" fill="#1A2D4A" p-id="12692"></path><path d="M412.1 808.4c-1.4 0-2.9-0.2-4.3-0.5l-162-35.7c-10.8-2.4-17.6-13-15.2-23.8 2.4-10.8 13-17.6 23.8-15.2l162 35.7c10.8 2.4 17.6 13 15.2 23.8-2.1 9.3-10.3 15.7-19.5 15.7zM524.4 693.1c-1.4 0-2.8-0.1-4.2-0.5l-271.6-58.4c-10.8-2.3-17.7-13-15.3-23.8 2.3-10.8 13-17.7 23.8-15.3l271.6 58.4c10.8 2.3 17.7 13 15.3 23.8-2 9.4-10.3 15.8-19.6 15.8zM554.4 550.7c-1.4 0-2.8-0.1-4.2-0.5l-181.7-39.1c-10.8-2.3-17.7-13-15.3-23.8 2.3-10.8 13-17.7 23.8-15.3l181.7 39.1c10.8 2.3 17.7 13 15.3 23.8-2.1 9.4-10.3 15.8-19.6 15.8z" fill="#1A2D4A" p-id="12693"></path><path d="M785.4 651.6c-17.5 0-33.9-7-46.3-19.7L399.6 283.5c-25-25.6-25.3-67-0.7-92.2l40.5-41.6c22.1-22.7 51.8-35.2 83.4-35.2 32.5 0 63.2 13.1 86.4 36.9l80.5 82.6c15.1 15.5 15.2 40.5 0.3 55.8-7.7 7.9-7.4 20.9 0.6 29.1l15.4 15.8c3.8 3.9 8.8 6.1 14.1 6.1 4.9 0 9.5-1.9 12.9-5.5 7.3-7.5 17.1-11.7 27.6-11.7 10.7 0 20.7 4.3 28.2 12l80.5 82.6c46.9 48.1 47.6 125.6 1.6 172.7l-40.5 41.6c-12 12.4-27.9 19.1-45 19.1zM522.8 154.5c-20.8 0-40.2 8.2-54.8 23.1l-40.5 41.6c-9.6 9.8-9.3 26.2 0.7 36.4L767.7 604c4.8 4.9 11.1 7.7 17.7 7.7 6.2 0 12-2.5 16.4-6.9l40.5-41.6c31-31.8 30.2-84.2-1.6-116.9l-79.9-82c-10.9 10.7-25.3 16.6-40.6 16.6-16.1 0-31.3-6.5-42.7-18.2L662 346.9c-22.9-23.5-23.3-61.5-0.9-84.8 0-0.1 0-0.1-0.1-0.2l-80.5-82.6c-15.6-16-36.1-24.8-57.7-24.8z" fill="#FFAF3B" p-id="12694"></path></svg>