<?xml version="1.0" standalone="no"?><!DOCTYPE svg PUBLIC "-//W3C//DTD SVG 1.1//EN" "http://www.w3.org/Graphics/SVG/1.1/DTD/svg11.dtd"><svg t="1665046667990" class="icon" viewBox="0 0 1024 1024" version="1.1" xmlns="http://www.w3.org/2000/svg" p-id="4001" width="32" height="32" xmlns:xlink="http://www.w3.org/1999/xlink"><path d="M841.557333 864.938667l0.981334-1.92a31.573333 31.573333 0 0 0 2.261333-4.992l0.085333-0.213334a49.493333 49.493333 0 0 0 2.304-25.898666l0.042667 0.298666a76.586667 76.586667 0 0 0-10.026667-26.581333l0.213334 0.341333-226.858667-399.061333-34.645333-60.586667-34.432 60.586667-226.730667 399.061333a78.933333 78.933333 0 0 0-8.704 25.770667l-0.042667 0.469333a53.632 53.632 0 0 0 3.413334 30.421334l-0.128-0.341334a34.517333 34.517333 0 0 0 2.133333 4.352l-0.085333-0.170666c6.826667 11.733333 21.333333 25.685333 53.333333 25.685333h422.314667c6.698667 0 39.466667-1.365333 54.613333-27.178667z m-265.685333-397.482667l207.317333 364.714667H368.64z m437.290667 338.517333L713.813333 278.613333c-3.072-5.546667-20.352-33.578667-50.432-33.578666-13.525333 0-32.938667 5.76-48.725333 33.493333l-38.698667 67.84 34.432 60.586667 53.333334-94.378667 296.149333 519.68h-112.64a50.645333 50.645333 0 0 1-2.474667 25.941333l0.128-0.341333a32.938667 32.938667 0 0 1-2.432 5.376l0.085334-0.170667-0.981334 1.92c-15.146667 25.813333-47.872 27.178667-54.272 27.178667h176.170667c6.485333 0 39.125333-1.365333 54.272-27.178667 6.698667-11.733333 11.52-31.445333-4.565333-58.965333zM311.637333 866.432a42.197333 42.197333 0 0 1-1.92-3.925333l-0.085333-0.256a52.394667 52.394667 0 0 1-3.584-30.378667l-0.042667 0.298667H64.042667L423.68 199.338667l118.058667 207.530666 34.218666-60.586666-102.912-181.290667c-2.858667-5.205333-20.266667-33.152-50.218666-33.152-13.525333 0-32.938667 5.845333-48.725334 33.578667L9.813333 805.930667c-3.072 5.546667-18.133333 34.645333-3.2 60.458666 6.826667 11.733333 21.333333 25.685333 53.333334 25.685334h305.109333c-31.786667 0-46.506667-13.738667-53.333333-25.685334z" p-id="4002" fill="#1afa29"></path></svg>